<svg width="246" height="30" viewBox="0 0 246 30" fill="none" xmlns="http://www.w3.org/2000/svg">
<g clip-path="url(#clip0_5613_450)">
<path d="M57.4209 11.0758H36.6726L35.9315 11.6626V29.9266H41.6373V23.0317L42.1559 22.5184H57.4207C61.2738 22.5184 63.0523 21.4916 63.0523 18.851V14.6701C63.0525 12.1027 61.274 11.0758 57.4209 11.0758ZM57.4209 17.8239C57.4209 19.0707 56.6057 19.2908 54.7532 19.2908H42.2302L41.6373 18.7774V14.8899L42.1559 14.3765H54.753C56.5315 14.3765 57.4206 14.5966 57.4206 15.8434L57.4209 17.8239ZM73.5748 14.5231L78.5395 21.7113L78.2431 22.3715H67.2762L64.4604 25.819H80.7625L81.9481 26.4791L84.4675 29.9265H91.0625L76.6129 10.8557L73.5748 14.5231ZM139.006 26.259V21.1247L139.598 20.6111H150.64V17.3837H133.152V29.9265H158.939V26.6991H139.673L139.006 26.259ZM133.152 11.0758H159.161V14.5966H133.152V11.0758ZM104.178 14.4498H125.149C124.852 11.8093 123.148 11.0758 118.998 11.0758H103.956C99.2137 11.0758 97.7317 11.956 97.7317 15.55V25.5255C97.7317 29.0464 99.2137 30 103.956 30H118.998C123.222 30 124.852 29.193 125.001 26.4791H104.178L103.586 25.8922V14.8899L104.178 14.4498ZM21.8525 18.4107H6.66192L6.21729 17.8974V14.67L6.66192 14.3033H27.1878L27.4841 13.6431C26.8172 11.8826 24.9647 11.0025 21.6302 11.0025H7.32877C2.58638 11.0025 1.10435 11.8827 1.10435 15.4767V17.6039C1.10435 21.1248 2.58638 22.0783 7.32877 22.0783H22.5194L22.964 22.5183V25.8923L22.5935 26.4059H0.659717C0.659717 26.4059 0.141113 26.6991 0.141113 26.7726C0.511572 29.2665 2.21592 29.9265 6.29136 29.9265H21.8526C26.595 29.9265 28.1512 29.0464 28.1512 25.4523V22.885C28.1511 19.3643 26.595 18.4107 21.8525 18.4107ZM175.537 11.0025H166.941L166.497 11.8826L175.982 18.7775C177.76 17.7505 179.761 16.7237 181.836 15.6968L175.537 11.0025ZM183.244 23.912L191.617 29.9265H200.213L200.583 29.1196L188.134 20.0977C186.504 21.3445 184.8 22.5916 183.244 23.912Z" fill="white" fill-opacity="0.87"/>
<path d="M174.278 29.9266H166.497L165.83 28.8996C171.091 23.8386 194.655 2.27384 245.859 0C245.859 0 202.955 1.4669 174.278 29.9266Z" fill="white" fill-opacity="0.87"/>
</g>
<defs>
<clipPath id="clip0_5613_450">
<rect width="246" height="30" fill="white"/>
</clipPath>
</defs>
</svg>
